<svg width="2749" height="317" viewBox="0 0 2749 317" fill="none" xmlns="http://www.w3.org/2000/svg">
<path fill-rule="evenodd" clip-rule="evenodd" d="M0.00634766 314.331L2748.36 316.03V56.5275L2539.84 39.9149L2529.23 2.83398H2519.68V38.2278L2347.05 37.272L2278.92 105.401H2166.36C2153.5 106.672 2143 110.554 2134.85 117.047C2095.33 155.653 2075.57 174.957 2075.57 174.957C1803.99 184.617 1601.43 189.54 1467.9 189.726C1408.17 187.399 1348.45 182.439 1288.75 174.844C1249.12 164.339 1189.4 143.301 1109.58 111.731C1011.1 85.9025 943.38 69.1574 906.411 61.4956C875.905 55.1083 740.471 51.052 500.109 49.3267V3.34984H491.987L482.593 49.3786L0.00634766 48.316V314.331Z" fill="#C1854B"/>
<path d="M2748.36 56.5286L2586.27 43.6152M418.072 49.2381L0.00634766 48.3171" stroke="#663333" stroke-width="5.66929" stroke-miterlimit="22.9256"/>
<path d="M2715.1 53.8777L2539.84 39.9149L2529.23 2.83398H2519.68V38.2278L2347.05 37.272L2278.92 105.401H2166.36C2153.5 106.672 2143 110.554 2134.85 117.047C2095.33 155.653 2075.57 174.957 2075.57 174.957C1803.99 184.617 1601.43 189.54 1467.9 189.726C1408.17 187.399 1348.45 182.439 1288.75 174.844C1249.12 164.339 1189.4 143.301 1109.58 111.731C1011.1 85.9025 943.38 69.1574 906.411 61.4956C875.905 55.1083 740.47 51.052 500.108 49.3267V3.34984H491.986L482.593 49.3786L30.0122 48.316" stroke="#663333" stroke-width="5.66929" stroke-miterlimit="22.9256" stroke-linecap="round" stroke-linejoin="round"/>
</svg>
